<?xml version="1.0" encoding="utf-8"?>
<!-- Generator: Adobe Illustrator 19.0.0, SVG Export Plug-In . SVG Version: 6.00 Build 0)  -->
<svg version="1.1" id="Warstwa_1" xmlns="http://www.w3.org/2000/svg" xmlns:xlink="http://www.w3.org/1999/xlink" x="0px" y="0px"
	 viewBox="-30 41 14 20" style="enable-background:new -30 41 14 20;" xml:space="preserve">
<style type="text/css">
	.st0{fill:#FFFFFF;}
</style>
<path class="st0" d="M-20,42.7c0.9,0,1.7,0.7,1.7,1.7v10c0,2.8-2.2,5-5,5s-5-2.2-5-5v-10c0-0.9,0.7-1.7,1.7-1.7
	C-26.6,42.7-20,42.7-20,42.7z M-16.7,44.3c0-1.8-1.5-3.3-3.3-3.3h-6.7c-1.8,0-3.3,1.5-3.3,3.3v10c0,3.7,3,6.7,6.7,6.7s6.7-3,6.7-6.7
	v-10H-16.7z M-22.5,45.2c0-0.5-0.4-0.8-0.8-0.8c-0.5,0-0.8,0.4-0.8,0.8v3.3c0,0.5,0.4,0.8,0.8,0.8c0.5,0,0.8-0.4,0.8-0.8V45.2z"/>
</svg>
